<?xml version="1.0" encoding="utf-8"?>
<!-- Generator: Adobe Illustrator 16.0.0, SVG Export Plug-In . SVG Version: 6.00 Build 0)  -->
<!DOCTYPE svg PUBLIC "-//W3C//DTD SVG 1.1//EN" "http://www.w3.org/Graphics/SVG/1.1/DTD/svg11.dtd">
<svg version="1.1" id="图层_1" xmlns="http://www.w3.org/2000/svg" xmlns:xlink="http://www.w3.org/1999/xlink" x="0px" y="0px"
	 width="30px" height="30px" viewBox="0 0 30 30" enable-background="new 0 0 30 30" xml:space="preserve">
<g>
	<path fill="#FFFFFF" d="M15,0C6.729,0,0,6.728,0,15c0,8.272,6.729,15,15,15s15-6.729,15-15C30,6.728,23.271,0,15,0L15,0z
		 M15,28.363C7.631,28.363,1.637,22.369,1.637,15c0-3.061,1.045-5.876,2.782-8.132C4.347,7.141,4.198,7.636,4.237,7.785
		C4.289,7.97,4.261,8.067,4.324,8.228c-0.039,0.031-0.125,0.088-0.09,0.153c0.11,0.218,0.242,0.533,0.41,0.55
		c-0.065,0.329,0.107,0.2,0.21,0.476C4.866,9.46,4.841,9.55,4.906,9.577c0.283,0.086,0.678,0.23,0.805,0.474
		c-0.004-0.003-0.013,0-0.017,0c0,0.015-0.002,0.042-0.003,0.057c0.055,0.193,0.12,0.233,0.191,0.377
		c0.044,0.1,0.035,0.326,0.13,0.389c0.142,0.089,0.279,0.259,0.402,0.437c0.072,0.104-0.138,0.079-0.174,0.079
		c0.087,0.126,0.277,0.096,0.393,0.208c0.091,0.084,0.156,0.173,0.25,0.266c-0.002,0.057-0.005,0.149-0.006,0.223
		c0.017,0.035,0.03,0.044,0.087,0.074c0.1,0.064,0.173,0.257,0.34,0.259c0.003,0.027,0.13,0.181,0.146,0.182
		c0.021-0.003,0.061-0.098,0.064-0.131c-0.002-0.053-0.103-0.213-0.178-0.145c-0.164-0.104-0.211-0.319-0.274-0.526
		c-0.068-0.182-0.227-0.263-0.289-0.461c-0.041-0.144-0.056-0.226-0.173-0.341c-0.087-0.085-0.194-0.075-0.254-0.2
		c-0.063-0.138-0.139-0.24-0.137-0.418c0.001-0.02,0.002-0.081,0.022-0.109c0.101,0.101,0.239,0.086,0.389,0.147
		c0.057,0.029,0.043,0.212,0.12,0.288c0.068,0.073,0.043,0.213,0.122,0.292c0.095,0.092,0.174,0.175,0.292,0.287
		c0.019-0.021,0.018-0.017,0.098-0.003c-0.001,0.208,0.261,0.215,0.35,0.367c0.038,0.095-0.028,0.176,0.049,0.248
		c0.081,0.079,0.229,0.114,0.324,0.201c0.193,0.189,0.399,0.468,0.509,0.787c0.012,0.047,0.089,0.084,0.091,0.201
		c0.007,0.1-0.09,0.148-0.095,0.246c0.004,0.06,0.061,0.175,0.139,0.175c0.045,0.116,0.314,0.177,0.429,0.279
		c0.026,0.017,0.078,0.045,0.104,0.063c0.121,0.053,0.184,0.033,0.313,0.087c0.119,0.063,0.162,0.166,0.293,0.203
		c0.114,0.028,0.173-0.024,0.277,0.018c0.109,0.048,0.415,0.252,0.537,0.259c0.058-0.002,0.15-0.019,0.222,0.017
		c0.03,0.013,0.117,0.079,0.193,0.08c0.168-0.002,0.194-0.174,0.369-0.178c0.058,0,0.129,0.026,0.215,0.071
		c0.015,0.001,0.045,0,0.058,0c0.265,0.123,0.335,0.484,0.644,0.626c0.198,0.091,0.327,0.049,0.521,0.126
		c0.126,0.057,0.225,0.145,0.411,0.152c0.05-0.002,0.116-0.04,0.187-0.044c0.014,0.004,0.044,0.001,0.059,0
		c0.063,0.217,0.223,0.289,0.384,0.438c0.034,0.032,0.098,0.068,0.126,0.15c0.049,0.142-0.049,0.257,0.099,0.347
		c0.023-0.004,0.073,0.002,0.098,0c-0.015-0.012-0.014-0.059,0-0.078c0.008-0.002,0.335,0.182,0.372,0.236
		c0.027,0.055,0.034,0.154,0.176,0.188c-0.004,0.014,0.033,0.055,0.048,0.053c0.05,0,0.22-0.055,0.293,0.008
		c0.077,0.074,0.173,0.236,0.329,0.238c0.058,0.002,0.127-0.045,0.147-0.135c-0.015-0.008-0.075-0.053-0.079-0.08
		c0.008-0.037,0.27-0.229,0.343-0.23c0.102,0,0.038,0.199,0.148,0.25c-0.016,0.027-0.057,0.064-0.06,0.09
		c0.001,0.02,0.093,0.055,0.108,0.068c0.006,0,0.017-0.01,0.023-0.01c-0.004,0.014-0.015,0.041-0.016,0.057
		c0.002,0.158,0.164,0.123,0.17,0.313c-0.002,0.088-0.047,0.123-0.05,0.229c0.004,0.053,0.054,0.119,0.055,0.193
		c-0.001,0.01,0,0.031,0,0.043c-0.009,0.018-0.031,0.053-0.039,0.07c0,0.02,0.058,0.076,0.095,0.086
		c-0.066,0.236-0.304,0.172-0.417,0.369c-0.077,0.143-0.146,0.367-0.41,0.377c0.036,0.387-0.101,0.547-0.105,0.744
		c-0.001,0.123,0.012,0.279,0.149,0.285c0.051-0.002,0.057-0.043,0.145,0.008c-0.047,0.129-0.21,0.168-0.301,0.299
		c-0.029,0.023-0.105,0.148-0.108,0.252c-0.002,0.143,0.13,0.316,0.231,0.402c0.03,0.023,0.11,0.016,0.143,0.064
		c0.02,0.045,0.044,0.166,0.109,0.227c0.025,0.014,0.092,0.006,0.121,0.055c0.078,0.154,0.134,0.254,0.197,0.441
		c0.061,0.17,0.109,0.35,0.178,0.535c0.042,0.119,0.17,0.17,0.167,0.293c0,0.1-0.041,0.18,0.029,0.238
		c0.165,0.145,0.28,0.236,0.538,0.293c0.124,0.029,0.175,0.047,0.283,0.139c0.096,0.074,0.196,0.064,0.327,0.104
		c0.167,0.074,0.287,0.156,0.363,0.332c0.017,0.084,0.037,0.504,0.031,0.574c-0.011,0.107-0.101,0.303-0.109,0.404
		c-0.012,0.098-0.016,0.191-0.023,0.303c-0.026,0.068-0.076,0.193-0.08,0.24c0.002,0.02-0.003,0.041-0.004,0.061
		c-0.024,0.225-0.165,0.367-0.188,0.615c-0.006,0.104-0.11,0.199-0.069,0.305c-0.013,0.16-0.02,0.311-0.036,0.457
		c-0.064,0.143-0.079,0.24-0.147,0.381c-0.014,0.021-0.053,0.025-0.078,0.047c-0.04,0.041-0.07,0.117-0.108,0.166
		c-0.082,0.078-0.209,0.215-0.226,0.344c-0.01,0.043-0.008,0.182,0.021,0.182c0,0,0.039,0.016,0.042,0.055
		c-0.008,0.016-0.031,0.031-0.084,0.039c-0.04,0.096-0.1,0.137-0.108,0.234c-0.003,0.064-0.035,0.182,0.032,0.182
		c0.05-0.01,0.064-0.039,0.128-0.064c0.021-0.004,0.052,0,0.072-0.006c-0.001,0.033-0.004,0.043-0.009,0.074
		c-0.092,0.141-0.182,0.277-0.271,0.414C16.104,28.318,15.558,28.363,15,28.363L15,28.363z M13.71,1.701
		c-0.019,0.033-0.044,0.068-0.11,0.11c-0.195,0.127-0.362,0.018-0.366-0.031c0-0.011,0.018-0.011,0.024-0.018
		C13.409,1.743,13.558,1.715,13.71,1.701L13.71,1.701z M18.693,27.832c0.014-0.012,0.018-0.021,0.034-0.033
		c-0.038,0-0.076-0.006-0.068-0.055c0.074-0.018,0.092,0.025,0.188,0.01c0.013-0.006,0.087-0.033,0.088-0.072
		c0.011-0.029-0.025-0.014-0.058-0.037c-0.021,0.01-0.078,0.043-0.113,0.051c-0.063,0.012-0.131-0.096-0.12-0.168
		c0.002-0.031,0.03-0.068,0.089-0.068c0.156-0.029,0.168,0.037,0.327,0.016c0.05-0.01,0.17-0.057,0.188-0.086
		c0-0.021,0.004-0.027,0.01-0.049c0.067-0.078-0.021-0.133,0.093-0.211c0.084-0.061,0.313-0.041,0.438-0.088
		c0.191-0.072,0.329-0.078,0.483-0.186c0.079-0.068,0.143-0.102,0.228-0.191c0.048-0.039,0.055-0.072,0.068-0.145
		c0.022-0.068-0.1-0.033-0.112-0.092c-0.016-0.08-0.005-0.111-0.053-0.15c-0.025-0.014-0.125-0.014-0.116-0.07
		c0.003-0.018,0.045-0.033,0.066-0.037c0.119-0.021,0.199,0.029,0.3,0.01c0.049-0.008,0.194,0.016,0.318-0.004
		c0.335-0.068,0.451-0.342,0.633-0.549c0.157-0.168,0.342-0.316,0.508-0.496c0.08-0.092,0.017,0.041,0.08-0.049v0.004
		c0.099-0.135,0.192-0.244,0.341-0.34c0.032-0.156,0.054-0.324,0.081-0.496c0.015-0.115-0.023,0.02,0.09-0.08
		c0.065-0.059,0.158-0.074,0.229-0.172c0.162-0.205,0.305-0.152,0.505-0.338c0.02-0.021,0.03-0.057,0.082-0.084
		c0.101-0.064,0.2-0.08,0.329-0.111c0.113-0.02,0.263-0.143,0.317-0.23c0.019-0.023,0.025-0.1,0.061-0.148
		c0.12-0.148,0.163-0.219,0.291-0.391c0.017-0.025,0.057-0.168,0.076-0.229c0.005-0.053,0.073-0.131,0.109-0.17
		c0.012-0.018,0.046-0.055,0.046-0.088c0.021-0.082,0.124-0.445,0.144-0.566c0.027-0.164-0.071-0.209,0.037-0.34
		c0.073-0.08,0.143-0.113,0.223-0.225c0.054-0.072,0.077-0.092,0.123-0.162c0.215-0.33,0.503-0.646,0.581-1.18
		c0.022-0.156,0.007-0.297-0.104-0.32c-0.083-0.014-0.137,0.033-0.224,0.021c-0.101-0.025-0.261-0.197-0.314-0.303
		c-0.078-0.033-0.167-0.068-0.297-0.08c-0.075,0.021-0.168,0.049-0.259,0.068c-0.133,0.021-0.142-0.098-0.299-0.088
		c-0.064,0.01-0.093,0.064-0.162,0.102c-0.017,0.004-0.034,0.002-0.05,0.006c0.008-0.057,0.018-0.123,0.002-0.189
		c-0.011-0.055-0.069-0.037-0.129-0.074c-0.092-0.047-0.346-0.174-0.477-0.166c-0.13,0.016-0.223,0.184-0.308,0.318
		c-0.018,0.033-0.063,0.1-0.092,0.102c-0.02,0.002-0.034-0.064-0.032-0.084c-0.056-0.002-0.113,0.014-0.184,0.016
		c-0.008-0.082-0.045-0.135-0.12-0.172c-0.036-0.012-0.109-0.002-0.104-0.08c0.026-0.244,0.285-0.563,0.422-0.732
		c-0.002-0.064-0.091-0.074-0.131-0.152c-0.031-0.09-0.121-0.34-0.119-0.439c-0.132-0.027-0.288-0.281-0.419-0.283
		c-0.014,0.002-0.035,0.002-0.049,0.002c0.005,0-0.001-0.014,0.001-0.018c-0.077,0.008-0.208-0.057-0.266-0.08
		c-0.063,0.004-0.147,0.004-0.216,0.01c-0.228-0.033-0.564,0.006-0.632-0.23c-0.036,0-0.113-0.02-0.126-0.047
		c-0.109-0.211-0.173-0.178-0.339-0.338c-0.077,0.008-0.165,0.004-0.244,0.006c-0.042-0.115,0.002-0.234-0.118-0.273
		c-0.131-0.035-0.315-0.059-0.379-0.182c-0.003-0.018,0.002-0.051,0.001-0.069c0.021,0.011,0.106,0.002,0.134-0.021
		c0,0-0.164-0.022-0.251-0.021c-0.021,0.011-0.214,0.028-0.224,0.047c-0.072,0.104-0.146,0.106-0.284,0.125
		c-0.056,0.002-0.183-0.012-0.181-0.092c-0.163,0.004-0.328,0.004-0.498,0.006c-0.043-0.006-0.106-0.067-0.109-0.156
		c-0.133-0.023-0.35-0.072-0.385-0.214c-0.042-0.001-0.123-0.002-0.165-0.001c-0.008,0.104,0.141,0.063,0.177,0.166
		c-0.056,0.004-0.146,0.004-0.225,0.002c-0.085,0.056-0.231,0.038-0.238,0.169c-0.006,0.106,0.103,0.163,0.11,0.272
		c-0.003,0.025-0.062,0.139-0.091,0.143c-0.113-0.004-0.162-0.17-0.153-0.264c-0.005-0.059,0.058-0.228,0.089-0.361
		c0.028-0.001,0.094-0.036,0.096-0.107c0,0-0.049-0.101-0.086-0.105c-0.109,0.009-0.15,0.13-0.275,0.171
		c-0.245,0.069-0.387,0.106-0.622,0.181c-0.122,0.041-0.209,0.061-0.26,0.205c-0.014,0.053-0.037,0.182-0.089,0.223
		c-0.046,0.018-0.149,0.063-0.155,0.152c-0.014,0.002-0.056,0.029-0.059,0.043c0.004,0.012,0.003,0.039,0,0.053
		c-0.048,0.02-0.042,0.014-0.116,0.002c-0.02,0.012-0.053,0.047-0.072,0.061c0.015-0.018,0.05-0.053,0.065-0.068
		c-0.153-0.109-0.167-0.365-0.449-0.375c-0.235,0.004-0.355,0.176-0.613,0.18c-0.171-0.004-0.163-0.158-0.272-0.211
		c-0.157-0.068-0.354-0.143-0.361-0.346c-0.001-0.186,0.005-0.355,0.001-0.545c0.06-0.088,0.068-0.437,0.068-0.519
		c0.006-0.032,0-0.102,0-0.134c-0.174-0.036-0.231-0.185-0.472-0.189c-0.344,0.004-0.604,0.055-0.932,0.055
		c-0.044,0.002-0.114-0.035-0.118-0.098c-0.002-0.011-0.003-0.035,0-0.045c0.046-0.036,0.175-0.088,0.177-0.179
		c-0.006-0.147-0.003-0.29,0-0.431c0.02-0.003,0.06-0.001,0.079,0c-0.004,0.016,0.002,0.048,0,0.063
		c0.062-0.088,0.117-0.147,0.117-0.295c0.003-0.173,0.163-0.329,0.167-0.456c0.001-0.019,0.001-0.061,0-0.08
		c-0.043,0-0.196-0.013-0.225-0.018c-0.028-0.016-0.108-0.033-0.196-0.027c-0.269,0.001-0.611-0.008-0.62,0.255
		c-0.004,0.135-0.16,0.253-0.206,0.358c-0.007,0.025-0.061,0.139-0.138,0.143c-0.028,0.001-0.079-0.053-0.186-0.053
		c-0.201,0-0.35,0.121-0.536,0.126c-0.058-0.003-0.079-0.079-0.165-0.107c-0.261-0.076-0.255-0.219-0.426-0.381
		c-0.065-0.062-0.192-0.188-0.231-0.258c-0.044-0.083,0.011-0.131-0.028-0.212c-0.017-0.024-0.089-0.104-0.075-0.178
		c0.006-0.163,0.006-0.323,0.005-0.494c0.029-0.135,0.099-0.188,0.099-0.354c0.002-0.039-0.023-0.1-0.037-0.14
		c-0.004-0.004-0.009-0.017-0.006-0.021c0.005-0.005,0.021,0.008,0.026,0.002c0.003-0.019-0.046-0.066-0.048-0.087
		c0.01-0.261,0.124-0.497,0.343-0.571c0.096-0.039,0.182,0.027,0.261-0.048c0.119-0.102,0.249-0.319,0.532-0.326
		c0.111,0.002,0.165,0.086,0.271,0.084c0.042-0.003,0.102-0.069,0.146-0.071c0.197,0.002,0.417,0.288,0.699,0.171
		c-0.118-0.072-0.033-0.153-0.019-0.278c-0.047,0.009-0.038,0.027-0.136,0c0.167-0.052,0.367-0.035,0.523-0.071
		c0.002,0.02,0.047,0.071,0.068,0.069c0.058,0.003,0.104-0.073,0.244-0.07c0.234-0.003,0.335,0.206,0.516,0.202
		c0.063,0,0.126-0.113,0.214-0.113c0.433,0.008,0.317,0.525,0.47,0.816c0.079,0.144,0.17,0.191,0.294,0.325
		c0.055,0.092,0.05,0.216,0.195,0.223c0.166-0.001,0.212-0.163,0.212-0.352c0.001-0.164-0.086-0.244-0.119-0.353
		c0.002-0.01-0.002-0.031,0-0.044c-0.009-0.281-0.268-0.362-0.276-0.655c0.005-0.639,0.471-0.669,0.926-0.886
		c-0.007-0.004-0.019-0.013-0.026-0.017c0.045-0.037,0.044-0.073,0.161-0.107c0.059-0.008,0.124-0.08,0.236-0.099
		c0.039-0.004,0.088-0.065,0.109-0.09c-0.027-0.018-0.083-0.051-0.112-0.063c0.002-0.018-0.002-0.049-0.001-0.067
		c0.063-0.001,0.129,0.008,0.146-0.082c-0.035-0.011-0.094-0.015-0.133-0.076c0.036,0.001,0.123-0.026,0.124-0.1
		c-0.001-0.021,0.001-0.063-0.002-0.083c-0.015-0.008-0.05,0-0.066-0.002c-0.042-0.039-0.001-0.044-0.003-0.125
		c-0.004-0.085-0.049-0.236-0.054-0.291c0,0-0.008-0.076,0.007-0.109c0.017,0.09,0.112,0.208,0.11,0.277
		c0.002,0.023,0.002,0.066,0.002,0.092c0.002,0.012,0.025,0.049,0.038,0.051c0.021-0.006,0.206-0.296,0.209-0.336
		c-0.006-0.052-0.068-0.085-0.089-0.158c0.013-0.011,0.035-0.027,0.046-0.04c0.013,0.015,0.046,0.067,0.067,0.068
		c0.05-0.003,0.235-0.284,0.252-0.345c0,0-0.088-0.067-0.087-0.101c-0.009-0.018,0.034-0.043,0.054-0.055
		c0.021,0.003,0.063,0.005,0.084,0.012c0.136-0.011,0.221,0.008,0.351-0.029c-0.047-0.036-0.146-0.001-0.231-0.008
		c-0.024-0.003-0.069-0.008-0.093-0.004c0.186-0.1,0.493-0.042,0.676-0.15c0.027,0.026,0.188,0.014,0.3-0.012
		c-0.003-0.014-0.002-0.04-0.002-0.056c0,0-0.084,0.05-0.099,0.052c-0.043,0-0.098-0.114-0.098-0.147
		c-0.021-0.006-0.035-0.054-0.039-0.072c-0.003-0.317,0.317-0.203,0.465-0.323c0.088-0.032,0.095-0.049,0.203-0.044
		c0.126,0.01,0.217-0.037,0.277-0.114c-0.016-0.012-0.031-0.043-0.043-0.059c0,0-0.001-0.019-0.006-0.021
		c0.001-0.008,0-0.018-0.001-0.024c0.015,0.004,0.066,0.005,0.088,0.006c0.043,0.001,0.273,0.044,0.352,0.007
		c0.079-0.045,0.067-0.138,0.198-0.138c0.011,0.102-0.001,0.111,0.14,0.125C19.293,6.738,18.993,6.845,19,7.012
		c0.006,0.06,0.138,0.199,0.189,0.206c0.057-0.003,0.219-0.187,0.389-0.228c0.036,0,0.601-0.158,0.61-0.22
		c-0.012-0.079-0.223-0.109-0.28-0.112c-0.248-0.022-0.647-0.261-0.676-0.448c-0.048-0.009-0.124-0.03-0.188-0.033
		c0.047-0.056,0.349-0.064,0.345-0.218c-0.019-0.13-0.271-0.133-0.458-0.146c-0.389-0.023-0.54,0.184-0.81,0.205
		c0.106-0.196,0.288-0.123,0.475-0.267c0.119-0.103,0.018-0.166,0.201-0.204c0.323-0.063,0.506,0.004,0.839,0.032
		c0.43,0.039,0.758,0.216,0.984-0.029c0.104-0.115,0.709-0.029,0.696-0.2c-0.016-0.127-0.08-0.187-0.167-0.271
		c-0.057-0.011,0.022-0.044-0.074-0.088c0.002-0.02-0.009-0.042-0.008-0.063c-0.175,0.045-0.54,0.082-0.741,0.063
		c-0.021,0.004-0.077-0.02-0.084-0.03c0.156-0.039,0.585-0.02,0.631-0.117c0-0.026-0.063-0.044-0.075-0.067
		c-0.197-0.01-0.602-0.113-0.63-0.293c-0.004-0.002-0.002-0.011-0.002-0.011c-0.18-0.027-0.295-0.109-0.407-0.173
		c0.036-0.015,0.115-0.016,0.11-0.078c-0.002-0.05-0.081-0.103-0.074-0.147c-0.08-0.027-0.355-0.152-0.296-0.242
		c0.068-0.109-0.27-0.167-0.321-0.303c-0.021-0.003-0.118-0.058-0.147-0.079c-0.052,0.02-0.2,0.054-0.174,0.117
		c0.05,0.109-0.093,0.117-0.239,0.164c-0.1,0.032-0.175,0.108-0.265,0.099c-0.15-0.014-0.273-0.182-0.376-0.196
		c-0.142-0.017-0.092-0.243-0.124-0.354c-0.059-0.136-0.484-0.083-0.514-0.258c-0.241-0.038-0.214-0.126-0.461-0.141
		c-0.051-0.006-0.124-0.008-0.188-0.012c-0.25-0.016-0.403-0.105-0.653-0.116c-0.132-0.007-0.258,0.02-0.255,0.108
		c0.006,0.05,0.318,0.128,0.038,0.22c-0.114,0.034,0.164,0.163,0.187,0.232c0.038,0.161-0.204,0.181-0.323,0.199
		c0.124,0.11,0.355,0.146,0.465,0.244c0.087,0.089,0.037,0.226,0.043,0.388c-0.007,0.096-0.521,0.313-0.706,0.336
		c0.324,0.109,0.208,0.393,0.335,0.5c-0.029,0.03-0.126,0.148-0.134,0.204c-0.113,0.006-0.208,0.033-0.299-0.014
		c-0.232-0.122-0.567-0.334-0.577-0.484c-0.007-0.16,0.002-0.293-0.258-0.385c-0.193-0.04-0.384-0.066-0.576-0.096
		c-0.342-0.127-0.709-0.217-1.113-0.293c-0.057-0.014-0.275-0.091-0.403-0.091c-0.138,0.005-0.2,0.08-0.334,0.08
		c-0.006-0.115-0.13-0.371-0.328-0.376c-0.092,0.006-0.134,0.044-0.225,0.056c0.033-0.053,0-0.08,0.01-0.213
		c0.009-0.196,0.135-0.368,0.346-0.481c0.073-0.055,0.229-0.217,0.297-0.233c0.15-0.029,0.289,0.065,0.295-0.044
		c-0.002-0.074-0.331-0.063-0.453-0.094c0.064,0.01-0.196-0.08,0.522,0.02c0.188,0.014,0.074-0.095,0.18-0.098
		c0.053-0.004,0.125-0.006,0.192-0.003c0.216-0.003,0.325-0.112,0.464-0.165c0-0.023,0.001-0.041,0.001-0.064
		c-0.298-0.036-0.584-0.008-0.718-0.132c0.043-0.003,0.113-0.006,0.155-0.002c0.112,0.024,0.221,0.09,0.389,0.093
		c0.141-0.005,0.449-0.029,0.458-0.078c-0.003-0.082-0.021-0.115-0.039-0.129c0.171,0.008,0.24,0.082,0.356,0.086
		c0.096-0.006,0.188,0.006,0.288,0.006c-0.039-0.021-0.011-0.099,0.104-0.02c0.062,0.044,0.483-0.129,0.493-0.185
		c-0.007-0.04-0.195-0.079-0.201-0.106c0.001-0.021-0.044-0.054-0.001-0.09c0.098-0.002,0.191-0.015,0.29-0.015
		c0.342,0,0.678,0.025,1.013,0.051c0.008,0.002,0.042,0.038,0.069,0.045c0.11,0,0.157-0.031,0.264-0.022
		c0.173,0.021,0.711,0.22,0.729,0.31c0.006,0.054-0.159,0.104-0.234,0.135c-0.056,0.007-0.206-0.023-0.204,0.036
		c0.001,0.031,0.123,0.07,0.157,0.085C16.689,2.29,16.492,2.3,16.418,2.297c-0.129-0.01-0.24-0.02-0.364-0.023
		c-0.118-0.013-0.332,0.038-0.336,0.078c0.008,0.053,0.276,0.114,0.374,0.121c0.103,0.011,0.149-0.039,0.253-0.038
		c0.063,0.006,0.059,0.027,0.146,0.035c0.063,0.006,0.125-0.021,0.165-0.042c0.251,0.078,0.39,0.153,0.673,0.233
		c-0.126,0.107,0.366,0.151,0.576,0.217c0.218,0.073,0.363,0.074,0.613,0.147c0.021,0.01,0.053,0.052,0.089,0.055
		c0.027,0.002,0.076-0.009,0.075-0.036c-0.026-0.104-0.479-0.226-0.631-0.321c0.033,0.014,0.089,0.01,0.125,0.014
		c0.095,0.06,0.622,0.209,0.777,0.231c0.029-0.041,0.103-0.09,0.1-0.128c-0.01-0.042-0.152-0.075-0.155-0.102
		c-0.006-0.024-0.009-0.046-0.011-0.071c-0.039,0.002-0.098-0.012-0.137-0.018c-0.024-0.063-0.072-0.032-0.232-0.069
		c-0.052-0.023-0.173-0.107-0.194-0.154c-0.031-0.004-0.076-0.007-0.106-0.013c0-0.019-0.002-0.034-0.007-0.052
		c0.027,0.012,0.072,0.017,0.121,0.014c-0.004-0.015-0.001-0.025-0.005-0.041c-0.064-0.006-0.088-0.004-0.163-0.025
		c0.005-0.004,0.105-0.025,0.156-0.021c0.398,0.051,0.434,0.279,0.836,0.338c0.089,0.009,0.093-0.04,0.088-0.083
		c0.152,0.016,0.168-0.006,0.166-0.017C19.405,2.51,19.4,2.499,19.4,2.482c0.084,0.013,0.174,0.016,0.202-0.013
		c0.309,0.115,0.614,0.236,0.913,0.373c0.015,0.011,0.036,0.023,0.065,0.03c0.162,0.076,0.323,0.152,0.481,0.233
		c-0.051-0.019-0.101-0.039-0.157-0.051c-0.06-0.018-0.057-0.019-0.123-0.028c0.044,0.075,0.39,0.179,0.632,0.254
		c0.037,0.021,0.07,0.045,0.108,0.066c-0.043,0.045-0.101,0.062-0.12,0.133c-0.101-0.046-0.098-0.041-0.188-0.037
		c0.002,0,0.001,0.004,0.001,0.004c-0.131,0.023-0.149,0.072-0.234,0.115c0.005,0.029,0.009,0.046,0.018,0.072
		c0.045-0.002,0.088,0.011,0.14,0.029c-0.014,0.041-0.059,0.028-0.051,0.065c0.018,0.087,0.217,0.159,0.271,0.232
		c0.029,0.033,0.066,0.107,0.096,0.123c0.13,0.06,0.134-0.021,0.256,0.063c-0.053,0.012-0.099-0.003-0.088,0.041
		c0.02,0.104,0.299,0.366,0.455,0.449c0.017,0.015,0.023,0.052,0.063,0.079c0.124,0.055,0.173,0.054,0.243,0.145
		c0.078,0.017,0.175-0.002,0.267,0.02c0.165,0.046,0.188,0.184,0.346,0.229c0.042,0.002,0.046-0.011,0.121,0.008
		c0.011,0.024,0.04,0.037,0.084,0.054c0.166,0.038,0.048-0.146,0.18-0.148c-0.023-0.039-0.034-0.128-0.049-0.182
		c-0.023-0.086,0.161-0.06,0.212-0.107c1.907,1.59,3.36,3.701,4.15,6.111c-0.006,0.007-0.016,0.01-0.021,0.018
		c-0.201,0.374-0.354,0.799-0.469,1.278c-0.047,0.178-0.311,0.315-0.304,0.574c0.08,0.489,0.358,0.888,0.361,1.442
		c0.009,0.313-0.221,0.9-0.508,1.051c0.069,0.174,0.287,0.408,0.302,0.584c-0.008,0.105,0.035,0.206,0.038,0.394
		c-0.024,0-0.009,0.002-0.034,0.002c0.079,0.084,0.077,0.094,0.147,0.166c0.001,0.047,0.545,0.592,0.63,0.652
		c0.149,0.145,0.214,0.316,0.281,0.508C27.17,22.469,23.481,26.453,18.693,27.832L18.693,27.832z M19.023,2.258
		c-0.017-0.002-0.021,0.001-0.042-0.002c-0.046-0.008-0.075-0.025-0.104-0.042C18.927,2.228,18.976,2.242,19.023,2.258L19.023,2.258
		z M19.023,2.258"/>
</g>
</svg>
