<?xml version="1.0" encoding="utf-8"?>
<!-- Generator: Adobe Illustrator 16.0.0, SVG Export Plug-In . SVG Version: 6.00 Build 0)  -->
<!DOCTYPE svg PUBLIC "-//W3C//DTD SVG 1.1//EN" "http://www.w3.org/Graphics/SVG/1.1/DTD/svg11.dtd">
<svg version="1.1" id="图层_1" xmlns="http://www.w3.org/2000/svg" xmlns:xlink="http://www.w3.org/1999/xlink" x="0px" y="0px"
	 width="65px" height="86px" viewBox="0 0 65 86" enable-background="new 0 0 65 86" xml:space="preserve">
<g>
	<path fill="#FFFFFF" d="M41.865,4.977c0.622,4.492-0.709,8.292-3.357,11.857c-0.955,1.286-0.203,3.286,1.044,4.026
		c1.485,0.882,3.021,0.224,3.974-1.056c3.657-4.921,4.781-10.348,3.945-16.391c-0.223-1.591-2.201-2.438-3.575-2.056
		C42.223,1.823,41.646,3.39,41.865,4.977z"/>
	<path fill="#FFFFFF" d="M44.56,5.855c5.099,1.813,11.191,2.941,15.481,6.475c1.229,1.009,2.902,1.22,4.107,0
		c1.033-1.047,1.231-3.149,0-4.162c-5.189-4.273-11.861-5.79-18.046-7.987C42.557-1.079,41.047,4.607,44.56,5.855z"/>
	<path fill="#FFFFFF" d="M45.908,7.436c10.748,13.451,1.21,29.781-7.248,41.522c-4.705,6.534-9.996,12.654-15.969,18.033
		c-3.044,2.74-6.302,5.201-9.738,7.412c-3.391,2.185-6.955,4.784-10.886,5.814c-3.624,0.95-2.086,6.628,1.544,5.676
		c4.299-1.127,8.052-3.777,11.791-6.104c3.886-2.418,7.533-5.244,10.977-8.266c6.694-5.876,12.408-12.809,17.614-20.037
		c5.09-7.065,9.816-14.779,11.797-23.391c2.07-9.004-0.064-17.675-5.776-24.821c-0.999-1.248-3.077-1.044-4.106,0
		C44.7,4.498,44.913,6.191,45.908,7.436z"/>
</g>
</svg>
