<?xml version="1.0" encoding="utf-8"?>
<!-- Generator: Adobe Illustrator 16.0.0, SVG Export Plug-In . SVG Version: 6.00 Build 0)  -->
<!DOCTYPE svg PUBLIC "-//W3C//DTD SVG 1.1//EN" "http://www.w3.org/Graphics/SVG/1.1/DTD/svg11.dtd">
<svg version="1.1" id="图层_1" xmlns="http://www.w3.org/2000/svg" xmlns:xlink="http://www.w3.org/1999/xlink" x="0px" y="0px"
	 width="30px" height="30px" viewBox="0 0 30 30" enable-background="new 0 0 30 30" xml:space="preserve">
<g>
	<path fill="#FFFFFF" d="M29.286,25.713h-0.715c-0.001,0.791-0.319,1.502-0.837,2.021c-0.52,0.518-1.229,0.836-2.021,0.836H4.286
		c-0.792,0-1.501-0.318-2.021-0.836c-0.518-0.52-0.837-1.23-0.838-2.021V4.285c0.001-0.791,0.32-1.501,0.838-2.02
		c0.52-0.518,1.229-0.836,2.021-0.837h21.428c0.791,0,1.501,0.319,2.021,0.837c0.518,0.519,0.836,1.229,0.837,2.02v21.428H29.286H30
		V4.285C29.999,1.917,28.082,0,25.714,0H4.286C1.919,0,0,1.917,0,4.285v21.428C0,28.08,1.919,29.998,4.286,30h21.428
		c2.368-0.002,4.285-1.92,4.286-4.287H29.286z"/>
	<rect x="13.405" y="6.749" fill="#FFFFFF" width="3.188" height="3.188"/>
	<rect x="13.405" y="13.126" fill="#FFFFFF" width="3.188" height="3.188"/>
	<rect x="13.405" y="19.502" fill="#FFFFFF" width="3.188" height="3.189"/>
</g>
</svg>
